<svg id="svg" xmlns="http://www.w3.org/2000/svg" xmlns:xlink="http://www.w3.org/1999/xlink" width="400" height="400" viewBox="0, 0, 400,400" version="1.1"><g id="svgg"><path id="path0" d="M194.086 121.084 C 191.013 121.673,189.209 136.964,191.916 139.473 C 193.387 140.836,206.837 140.915,208.546 139.571 L 209.600 138.742 209.600 131.763 C 209.600 124.264,209.122 122.443,206.832 121.217 C 206.083 120.816,196.031 120.711,194.086 121.084 M192.150 173.770 L 190.780 175.140 190.801 227.870 C 190.812 256.872,190.927 281.435,191.057 282.457 C 191.385 285.054,191.874 285.200,200.245 285.200 C 207.051 285.200,208.535 284.977,209.294 283.840 C 209.456 283.598,209.591 259.061,209.594 229.314 L 209.600 175.228 208.359 173.814 L 207.117 172.400 200.319 172.400 L 193.520 172.400 192.150 173.770 " stroke="none" fill="#fff" fill-rule="evenodd"></path><path id="path1" d="M192.932 117.981 C 187.195 118.878,186.842 119.633,186.797 131.086 C 186.747 143.533,187.504 144.292,200.114 144.436 L 207.557 144.520 209.860 143.360 C 213.436 141.559,213.794 140.570,213.826 132.400 C 213.870 121.417,213.283 119.258,210.026 118.427 C 208.033 117.918,195.436 117.590,192.932 117.981 M206.832 121.217 C 209.122 122.443,209.600 124.264,209.600 131.763 L 209.600 138.742 208.546 139.571 C 206.837 140.915,193.387 140.836,191.916 139.473 C 189.209 136.964,191.013 121.673,194.086 121.084 C 196.031 120.711,206.083 120.816,206.832 121.217 M192.210 168.496 C 189.654 169.024,188.564 169.847,187.670 171.927 L 186.824 173.893 186.783 228.919 C 186.754 268.279,186.868 284.180,187.183 284.769 C 188.241 286.746,189.535 286.991,199.600 287.124 C 209.982 287.261,211.510 287.026,212.962 285.071 L 213.800 283.942 213.932 229.771 C 214.085 167.141,214.330 170.824,209.876 168.970 C 208.069 168.218,195.227 167.874,192.210 168.496 M208.359 173.814 L 209.600 175.228 209.594 229.314 C 209.591 259.061,209.456 283.598,209.294 283.840 C 208.535 284.977,207.051 285.200,200.245 285.200 C 191.874 285.200,191.385 285.054,191.057 282.457 C 190.927 281.435,190.812 256.872,190.801 227.870 L 190.780 175.140 192.150 173.770 L 193.520 172.400 200.319 172.400 L 207.117 172.400 208.359 173.814 " stroke="none" fill="#fff" fill-rule="evenodd"></path><path id="path2" d="M0.000 200.000 L 0.000 400.000 200.000 400.000 L 400.000 400.000 400.000 200.000 L 400.000 0.000 200.000 0.000 L 0.000 0.000 0.000 200.000 M210.026 118.427 C 213.283 119.258,213.870 121.417,213.826 132.400 C 213.794 140.570,213.436 141.559,209.860 143.360 L 207.557 144.520 200.114 144.436 C 187.504 144.292,186.747 143.533,186.797 131.086 C 186.842 119.633,187.195 118.878,192.932 117.981 C 195.436 117.590,208.033 117.918,210.026 118.427 M209.876 168.970 C 214.330 170.824,214.085 167.141,213.932 229.771 L 213.800 283.942 212.962 285.071 C 210.502 288.385,188.983 288.132,187.183 284.769 C 186.868 284.180,186.754 268.279,186.783 228.919 L 186.824 173.893 187.670 171.927 C 189.096 168.610,190.624 168.185,200.923 168.236 C 206.877 168.266,208.505 168.400,209.876 168.970 " stroke="none" fill="#ec6c04" fill-rule="evenodd"></path></g></svg>