<svg width="82" height="100" viewBox="0 0 82 100" fill="none" xmlns="http://www.w3.org/2000/svg">
<path d="M41 100C38.3646 100 36.1056 99.0219 34.2231 97.0657C32.3407 95.1095 31.3994 92.8012 31.3994 90.1408H50.6006C50.6006 92.8012 49.6593 95.1095 47.7769 97.0657C45.8944 99.0219 43.6354 100 41 100ZM72.2865 69.953L82 80.0469V84.9765H0V80.0469L9.7135 69.953V42.4883C9.7135 34.82 11.9725 28.0516 16.4904 22.1831C21.0083 16.3146 26.7309 12.5196 33.6584 10.7981V7.51174C33.6584 5.32081 34.3737 3.52113 35.8044 2.11268C37.2351 0.704225 38.9669 0 41 0C43.0331 0 44.7273 0.704225 46.0826 2.11268C47.438 3.52113 48.1157 5.32081 48.1157 7.51174V10.7981C55.1938 12.5196 60.9917 16.3146 65.5096 22.1831C70.0275 28.0516 72.2865 34.82 72.2865 42.4883V69.953Z" fill="#808080" fill-opacity="0.42"/>
</svg>
