<svg id="svg" xmlns="http://www.w3.org/2000/svg" xmlns:xlink="http://www.w3.org/1999/xlink" width="400" height="368.8622754491018" viewBox="0, 0, 400,368.8622754491018"><g id="svgg"><path id="path0" d="M66.467 90.719 L 66.467 123.952 99.701 123.952 L 132.934 123.952 132.934 90.719 L 132.934 57.485 99.701 57.485 L 66.467 57.485 66.467 90.719 M165.868 90.719 L 165.868 123.952 199.102 123.952 L 232.335 123.952 232.335 90.719 L 232.335 57.485 199.102 57.485 L 165.868 57.485 165.868 90.719 M265.269 90.719 L 265.269 123.952 298.503 123.952 L 331.737 123.952 331.737 90.719 L 331.737 57.485 298.503 57.485 L 265.269 57.485 265.269 90.719 M116.168 90.719 L 116.168 107.186 99.701 107.186 L 83.234 107.186 83.234 90.719 L 83.234 74.251 99.701 74.251 L 116.168 74.251 116.168 90.719 M215.569 90.719 L 215.569 107.186 199.102 107.186 L 182.635 107.186 182.635 90.719 L 182.635 74.251 199.102 74.251 L 215.569 74.251 215.569 90.719 M314.970 90.719 L 314.970 107.186 298.503 107.186 L 282.036 107.186 282.036 90.719 L 282.036 74.251 298.503 74.251 L 314.970 74.251 314.970 90.719 M66.467 190.419 L 66.467 223.962 99.551 223.807 L 132.635 223.653 132.635 190.419 L 132.635 157.186 99.551 157.031 L 66.467 156.876 66.467 190.419 M166.143 157.635 C 165.985 158.046,165.927 173.069,166.012 191.018 L 166.168 223.653 199.251 223.807 L 232.335 223.962 232.335 190.424 L 232.335 156.886 199.382 156.886 C 173.572 156.886,166.367 157.048,166.143 157.635 M265.544 157.635 C 265.387 158.046,265.328 173.069,265.413 191.018 L 265.569 223.653 298.653 223.807 L 331.737 223.962 331.737 190.424 L 331.737 156.886 298.784 156.886 C 272.973 156.886,265.769 157.048,265.544 157.635 M116.168 190.419 L 116.168 207.186 99.701 207.186 L 83.234 207.186 83.234 190.419 L 83.234 173.653 99.701 173.653 L 116.168 173.653 116.168 190.419 M215.569 190.419 L 215.569 207.186 199.102 207.186 L 182.635 207.186 182.635 190.419 L 182.635 173.653 199.102 173.653 L 215.569 173.653 215.569 190.419 M314.970 190.419 L 314.970 207.186 298.503 207.186 L 282.036 207.186 282.036 190.419 L 282.036 173.653 298.503 173.653 L 314.970 173.653 314.970 190.419 M66.467 290.120 L 66.467 323.353 99.701 323.353 L 132.934 323.353 132.934 290.120 L 132.934 256.886 99.701 256.886 L 66.467 256.886 66.467 290.120 M165.868 290.120 L 165.868 323.353 199.102 323.353 L 232.335 323.353 232.335 290.120 L 232.335 256.886 199.102 256.886 L 165.868 256.886 165.868 290.120 M265.269 290.120 L 265.269 323.353 298.503 323.353 L 331.737 323.353 331.737 290.120 L 331.737 256.886 298.503 256.886 L 265.269 256.886 265.269 290.120 M116.168 290.120 L 116.168 306.587 99.701 306.587 L 83.234 306.587 83.234 290.120 L 83.234 273.653 99.701 273.653 L 116.168 273.653 116.168 290.120 M215.569 290.120 L 215.569 306.587 199.102 306.587 L 182.635 306.587 182.635 290.120 L 182.635 273.653 199.102 273.653 L 215.569 273.653 215.569 290.120 M314.970 290.120 L 314.970 306.587 298.503 306.587 L 282.036 306.587 282.036 290.120 L 282.036 273.653 298.503 273.653 L 314.970 273.653 314.970 290.120 " stroke="none" fill="#fff" fill-rule="evenodd"></path></g></svg>