<svg id="svg" version="1.1" xmlns="http://www.w3.org/2000/svg" xmlns:xlink="http://www.w3.org/1999/xlink" width="400" height="380" viewBox="0, 0, 400,380"><g id="svgg"><path id="path0" d="M0.000 190.114 L 0.000 380.228 200.000 380.228 L 400.000 380.228 400.000 190.114 L 400.000 0.000 200.000 0.000 L 0.000 0.000 0.000 190.114 M137.452 90.114 L 137.452 126.046 100.095 126.143 L 62.738 126.239 62.738 90.114 L 62.738 53.989 100.095 54.086 L 137.452 54.183 137.452 90.114 M236.122 90.114 L 236.122 126.236 199.430 126.236 L 162.738 126.236 162.738 90.114 L 162.738 53.992 199.430 53.992 L 236.122 53.992 236.122 90.114 M334.981 90.116 L 334.981 126.240 298.194 126.143 L 261.407 126.046 261.309 90.494 C 261.255 70.941,261.292 54.729,261.392 54.468 C 261.535 54.092,269.264 53.992,298.277 53.992 L 334.981 53.992 334.981 90.116 M136.122 189.544 L 136.122 226.236 99.430 226.236 L 62.738 226.236 62.738 189.544 L 62.738 152.852 99.430 152.852 L 136.122 152.852 136.122 189.544 M236.122 189.544 L 236.122 226.236 199.430 226.236 L 162.738 226.236 162.738 189.544 L 162.738 152.852 199.430 152.852 L 236.122 152.852 236.122 189.544 M334.981 189.546 L 334.981 226.240 298.194 226.143 L 261.407 226.046 261.309 189.924 C 261.255 170.057,261.292 153.588,261.392 153.327 C 261.535 152.951,269.264 152.852,298.277 152.852 L 334.981 152.852 334.981 189.546 M236.029 285.837 L 235.932 322.624 199.430 322.624 L 162.928 322.624 162.831 285.837 L 162.734 249.049 199.430 249.049 L 236.125 249.049 236.029 285.837 M334.888 285.837 L 334.791 322.624 298.859 322.728 C 279.097 322.786,262.543 322.739,262.072 322.626 L 261.217 322.419 261.217 285.988 C 261.217 265.950,261.331 249.442,261.470 249.303 C 261.610 249.163,278.207 249.049,298.354 249.049 L 334.985 249.049 334.888 285.837 M135.932 286.502 L 135.932 322.624 99.430 322.624 L 62.928 322.624 62.830 286.882 C 62.776 267.224,62.813 250.926,62.914 250.663 C 63.058 250.284,70.580 250.206,99.514 250.283 L 135.932 250.380 135.932 286.502 " stroke="none" fill="transparent" fill-rule="evenodd"></path><path id="path1" d="M62.738 90.114 L 62.738 126.239 100.095 126.143 L 137.452 126.046 137.452 90.114 L 137.452 54.183 100.095 54.086 L 62.738 53.989 62.738 90.114 M162.738 90.114 L 162.738 126.236 199.430 126.236 L 236.122 126.236 236.122 90.114 L 236.122 53.992 199.430 53.992 L 162.738 53.992 162.738 90.114 M261.392 54.468 C 261.292 54.729,261.255 70.941,261.309 90.494 L 261.407 126.046 298.194 126.143 L 334.981 126.240 334.981 90.116 L 334.981 53.992 298.277 53.992 C 269.264 53.992,261.535 54.092,261.392 54.468 M62.738 189.544 L 62.738 226.236 99.430 226.236 L 136.122 226.236 136.122 189.544 L 136.122 152.852 99.430 152.852 L 62.738 152.852 62.738 189.544 M162.738 189.544 L 162.738 226.236 199.430 226.236 L 236.122 226.236 236.122 189.544 L 236.122 152.852 199.430 152.852 L 162.738 152.852 162.738 189.544 M261.392 153.327 C 261.292 153.588,261.255 170.057,261.309 189.924 L 261.407 226.046 298.194 226.143 L 334.981 226.240 334.981 189.546 L 334.981 152.852 298.277 152.852 C 269.264 152.852,261.535 152.951,261.392 153.327 M162.831 285.837 L 162.928 322.624 199.430 322.624 L 235.932 322.624 236.029 285.837 L 236.125 249.049 199.430 249.049 L 162.734 249.049 162.831 285.837 M261.470 249.303 C 261.331 249.442,261.217 265.950,261.217 285.988 L 261.217 322.419 262.072 322.626 C 262.543 322.739,279.097 322.786,298.859 322.728 L 334.791 322.624 334.888 285.837 L 334.985 249.049 298.354 249.049 C 278.207 249.049,261.610 249.163,261.470 249.303 M62.914 250.663 C 62.813 250.926,62.776 267.224,62.830 286.882 L 62.928 322.624 99.430 322.624 L 135.932 322.624 135.932 286.502 L 135.932 250.380 99.514 250.283 C 70.580 250.206,63.058 250.284,62.914 250.663 " stroke="none" fill="#030303" fill-rule="evenodd"></path></g></svg>