<svg id="svg" version="1.1" xmlns="http://www.w3.org/2000/svg" xmlns:xlink="http://www.w3.org/1999/xlink" width="400" height="370.05988023952096" viewBox="0, 0, 400,370.05988023952096"><g id="svgg"><path id="path0" d="M99.551 0.449 C 154.469 0.533,244.334 0.533,299.251 0.449 C 354.169 0.365,309.237 0.296,199.401 0.296 C 89.566 0.296,44.633 0.365,99.551 0.449 M195.210 50.675 C 173.888 53.190,157.218 67.728,151.353 88.922 C 149.673 94.993,149.212 200.514,150.830 208.683 C 160.660 258.314,227.620 264.423,245.988 217.365 C 249.445 208.508,249.402 209.375,249.394 149.102 L 249.386 93.713 248.054 88.922 C 241.291 64.597,218.292 47.952,195.210 50.675 M92.303 206.736 C 95.086 255.157,130.213 295.452,178.593 305.722 L 183.234 306.707 183.234 328.204 L 183.234 349.701 199.701 349.701 L 216.168 349.701 216.168 328.204 L 216.168 306.707 220.808 305.722 C 269.188 295.452,304.315 255.157,307.098 206.736 L 307.485 200.000 299.303 200.000 L 291.120 200.000 290.737 204.641 C 286.575 255.013,248.641 290.996,199.701 290.996 C 150.760 290.996,112.826 255.013,108.664 204.641 L 108.281 200.000 100.099 200.000 L 91.916 200.000 92.303 206.736 " stroke="none" fill="#fff" fill-rule="evenodd"></path></g></svg>